<svg width="25" height="25" viewBox="0 0 25 25" fill="none" xmlns="http://www.w3.org/2000/svg">
<path d="M12.5 0C19.4062 0 25 5.59375 25 12.5C25 19.4062 19.4062 25 12.5 25C5.59375 25 0 19.4062 0 12.5C0 5.59375 5.59375 0 12.5 0ZM12.5 21.875C17.6719 21.875 21.875 17.6719 21.875 12.5C21.875 7.32812 17.6719 3.125 12.5 3.125C7.32812 3.125 3.125 7.32812 3.125 12.5C3.125 17.6719 7.32812 21.875 12.5 21.875ZM11.3906 13.6094C11.5 13.6875 11.6094 13.7656 11.75 13.8437L11.7188 13.875L18.75 17.1875L14.0156 12.2031L12.5 4.6875L10.9844 12.2031H11C11 12.2344 10.9844 12.2812 10.9688 12.3437C10.9531 12.4062 10.9375 12.4531 10.9375 12.5C10.9375 12.9375 11.0938 13.3125 11.3906 13.6094Z" fill="white"/>
</svg>
